<?xml version="1.0" standalone="no"?><!DOCTYPE svg PUBLIC "-//W3C//DTD SVG 1.1//EN" "http://www.w3.org/Graphics/SVG/1.1/DTD/svg11.dtd"><svg t="1647790914186" class="icon" viewBox="0 0 1024 1024" version="1.1" xmlns="http://www.w3.org/2000/svg" p-id="751" xmlns:xlink="http://www.w3.org/1999/xlink" width="30" height="30"><defs><style type="text/css">@font-face { font-family: feedback-iconfont; src: url("//at.alicdn.com/t/font_1031158_u69w8yhxdu.woff2?t=1630033759944") format("woff2"), url("//at.alicdn.com/t/font_1031158_u69w8yhxdu.woff?t=1630033759944") format("woff"), url("//at.alicdn.com/t/font_1031158_u69w8yhxdu.ttf?t=1630033759944") format("truetype"); }
</style></defs><path d="M677.101449 712.347826a27.262145 27.262145 0 0 0-21.103304 5.283246 20.376116 20.376116 0 0 0-8.577855 16.651131l0.296811 22.587362H437.797101v-21.889855c0-16.324638-13.356522-22.631884-29.681159-22.631884h-113.15942c-16.324638 0-35.246377 6.233043-35.246377 22.631884V756.869565h-103.884058v-21.889855A20.079304 20.079304 0 0 0 131.710145 712.347826H66.782609V178.086957h890.434782V118.724638H70.804406A64.512 64.512 0 0 0 7.42029 179.838145v525.460406A69.37971 69.37971 0 0 0 70.804406 771.710145H96.463768v17.630609c0 16.324638 18.862377 26.905971 35.246377 26.905971h163.246377A23.136464 23.136464 0 0 0 319.072464 789.340754V771.710145h59.362319v20.405797c0 16.324638 13.356522 24.115942 29.681159 24.115942h269.593971a27.603478 27.603478 0 0 0 21.103304-6.025275 19.678609 19.678609 0 0 0 8.577855-16.324638L707.109101 771.710145H957.217391v-59.362319H677.101449zM986.898551 0a29.681159 29.681159 0 0 0-29.68116 29.681159v964.637682a29.681159 29.681159 0 0 0 59.362319 0V29.681159a29.681159 29.681159 0 0 0-29.681159-29.681159zM373.878725 330.069333a117.997449 117.997449 0 1 0 69.409391 57.789218 117.24058 117.24058 0 0 0-69.409391-57.789218z m-7.791305 164.582029a58.63513 58.63513 0 1 1-27.321507-110.577159 58.976464 58.976464 0 0 1 17.482203 2.671304 58.63513 58.63513 0 0 1 9.839304 107.905855z m334.284058-164.582029a117.997449 117.997449 0 1 0 69.409392 57.789218 117.24058 117.24058 0 0 0-69.409392-57.789218z m-7.791304 164.582029a58.63513 58.63513 0 1 1-27.321507-110.577159 58.976464 58.976464 0 0 1 17.482203 2.671304 58.63513 58.63513 0 0 1 9.839304 107.905855zM699.273275 222.608696H144.784696C128.460058 222.608696 111.304348 229.405681 111.304348 245.804522v390.485333A34.786319 34.786319 0 0 0 144.784696 667.826087h554.488579a222.608696 222.608696 0 0 0 0-445.217391z m0 385.855072H170.666667V281.971014h528.606608a163.246377 163.246377 0 0 1 0 326.492754z" p-id="752"></path></svg>